<svg width="70" height="70" viewBox="0 0 70 70" fill="none" xmlns="http://www.w3.org/2000/svg">
<path d="M35.0007 5.83325C51.1007 5.83325 64.1673 18.8999 64.1673 34.9999C64.1673 51.0999 51.1007 64.1666 35.0007 64.1666C18.9007 64.1666 5.83398 51.0999 5.83398 34.9999C5.83398 18.8999 18.9007 5.83325 35.0007 5.83325ZM35.0007 58.3333C47.9119 58.3333 58.334 47.9111 58.334 34.9999C58.334 22.0888 47.9119 11.6666 35.0007 11.6666C22.0895 11.6666 11.6673 22.0888 11.6673 34.9999C11.6673 47.9111 22.0895 58.3333 35.0007 58.3333ZM35.0007 52.4999C25.3173 52.4999 17.5007 44.6833 17.5007 34.9999C17.5007 25.3166 25.3173 17.4999 35.0007 17.4999C44.684 17.4999 52.5007 25.3166 52.5007 34.9999C52.5007 44.6833 44.684 52.4999 35.0007 52.4999ZM35.0007 29.1666C31.7923 29.1666 29.1673 31.7916 29.1673 34.9999C29.1673 38.2083 31.7923 40.8333 35.0007 40.8333C38.209 40.8333 40.834 38.2083 40.834 34.9999C40.834 31.7916 38.209 29.1666 35.0007 29.1666Z" fill="#343333"/>
</svg>
