<svg width="44" height="54" viewBox="0 0 44 54" fill="none" xmlns="http://www.w3.org/2000/svg">
<path d="M10.8378 41.1429C10.0208 37.8705 6.33633 35.1918 4.82336 33.4265C1.80524 29.9049 0 25.4353 0 20.5714C0 9.21014 9.84973 0 22 0C34.1503 0 44 9.21014 44 20.5714C44 25.4379 42.1927 29.9096 39.1718 33.4322C37.6596 35.1951 33.9785 37.871 33.1623 41.1429H10.8378ZM33 46.2857V48.8571C33 51.6975 30.5376 54 27.5 54H16.5C13.4624 54 11 51.6975 11 48.8571V46.2857H33ZM24.75 20.5838V10.2857L12.375 25.7266H19.25V36.0123L31.625 20.5838H24.75Z" fill="#343333"/>
</svg>
