<svg width="52" height="53" viewBox="0 0 52 53" fill="none" xmlns="http://www.w3.org/2000/svg">
<path d="M47.3233 8.87817H49.2632C50.7747 8.87817 52 10.1031 52 11.6141V30.7655C52 32.2766 50.7747 33.5015 49.2632 33.5015H43.7896L32.3817 17.5356C31.0204 15.6305 28.5978 14.8022 26.3547 15.4749L19.553 17.5148C17.6243 18.0932 15.5336 17.5663 14.1097 16.1429L13.3085 15.3419C12.0873 14.1211 12.2886 12.0886 13.7256 11.1309L28.5072 1.2796C30.3108 0.0777262 32.6535 0.0528017 34.4822 1.21607L45.8542 8.45043C46.2932 8.7298 46.8031 8.87817 47.3233 8.87817ZM8.28455 31.5721L3.86252 35.4402C2.57236 36.5685 2.62584 38.5914 3.97388 39.6505L18.0432 50.7012C19.357 51.7332 21.2812 51.3576 22.1102 49.9073L24.0366 46.5371C25.2134 44.4783 24.9299 41.8962 23.3343 40.1416L15.9391 32.0093C13.9329 29.803 10.5291 29.6088 8.28455 31.5721ZM13.8088 6.14239H2.73681C1.22533 6.14239 0 7.36733 0 8.87833V29.4411C0 30.5584 0.341417 31.6339 0.958404 32.5343C1.02384 32.4725 1.09078 32.4115 1.15923 32.3516L5.58127 28.4835C9.50925 25.0477 15.4658 25.3878 18.9767 29.2487L26.3722 37.381C29.1643 40.4513 29.6605 44.9703 27.601 48.5732L25.8103 51.7061C27.3509 52.2897 29.106 52.1581 30.5675 51.2815L42.6346 44.0436C44.0041 43.222 44.3818 41.4075 43.454 40.108L29.0401 19.9208C28.6996 19.4447 28.0939 19.2376 27.5332 19.4057L20.7315 21.4456C17.3562 22.4579 13.6975 21.5359 11.2058 19.0448L10.4045 18.2438C7.35149 15.1918 7.85479 10.1105 11.4473 7.71621L13.8088 6.14239Z" fill="black"/>
</svg>
