<svg width="578" height="178" viewBox="0 0 578 178" fill="none" xmlns="http://www.w3.org/2000/svg">
<path d="M4 47H52.087V177.091C25.5293 177.091 4 155.562 4 129.004V47Z" fill="#2CC5D9" fill-opacity="0.8"/>
<path d="M104 43H152.087V125.004C152.087 151.562 130.558 173.091 104 173.091V43Z" fill="#2CC5D9"/>
<path d="M110 43H158.087V125.004C158.087 151.562 136.558 173.091 110 173.091V43Z" fill="#2CC5D9" fill-opacity="0.8"/>
<path d="M0 43H48.087V173.091C21.5293 173.091 0 151.562 0 125.004V43Z" fill="#2CC5D9"/>
<path d="M5 42.7C5 19.1174 24.1174 0 47.7 0H114.3C137.883 0 157 19.1174 157 42.7C157 46.1794 154.179 49 150.7 49H11.3C7.82061 49 5 46.1794 5 42.7Z" fill="#2CC5D9" fill-opacity="0.8"/>
<path d="M0 47.7C0 24.1174 19.1174 5 42.7 5H109.3C132.883 5 152 24.1174 152 47.7C152 51.1794 149.179 54 145.7 54H6.3C2.82061 54 0 51.1794 0 47.7Z" fill="#2CC5D9"/>
<path d="M152.835 124V89.0909H165.619C168.097 89.0909 170.148 89.5 171.773 90.3182C173.398 91.125 174.614 92.2216 175.42 93.608C176.227 94.983 176.631 96.5341 176.631 98.2614C176.631 99.7159 176.364 100.943 175.83 101.943C175.295 102.932 174.58 103.727 173.682 104.33C172.795 104.92 171.818 105.352 170.75 105.625V105.966C171.909 106.023 173.04 106.398 174.142 107.091C175.256 107.773 176.176 108.744 176.903 110.006C177.631 111.267 177.994 112.801 177.994 114.608C177.994 116.392 177.574 117.994 176.733 119.415C175.903 120.824 174.619 121.943 172.881 122.773C171.142 123.591 168.92 124 166.216 124H152.835ZM158.102 119.483H165.705C168.227 119.483 170.034 118.994 171.125 118.017C172.216 117.04 172.761 115.818 172.761 114.352C172.761 113.25 172.483 112.239 171.926 111.318C171.369 110.398 170.574 109.665 169.54 109.119C168.517 108.574 167.301 108.301 165.892 108.301H158.102V119.483ZM158.102 104.193H165.159C166.341 104.193 167.403 103.966 168.347 103.511C169.301 103.057 170.057 102.42 170.614 101.602C171.182 100.773 171.466 99.7955 171.466 98.6705C171.466 97.2273 170.96 96.017 169.949 95.0398C168.938 94.0625 167.386 93.5739 165.295 93.5739H158.102V104.193ZM194.861 124.528C192.406 124.528 190.264 123.966 188.435 122.841C186.605 121.716 185.185 120.142 184.173 118.119C183.162 116.097 182.656 113.733 182.656 111.028C182.656 108.312 183.162 105.937 184.173 103.903C185.185 101.869 186.605 100.29 188.435 99.1648C190.264 98.0398 192.406 97.4773 194.861 97.4773C197.315 97.4773 199.457 98.0398 201.287 99.1648C203.116 100.29 204.537 101.869 205.548 103.903C206.56 105.937 207.065 108.312 207.065 111.028C207.065 113.733 206.56 116.097 205.548 118.119C204.537 120.142 203.116 121.716 201.287 122.841C199.457 123.966 197.315 124.528 194.861 124.528ZM194.878 120.25C196.469 120.25 197.787 119.83 198.832 118.989C199.878 118.148 200.651 117.028 201.151 115.631C201.662 114.233 201.918 112.693 201.918 111.011C201.918 109.341 201.662 107.807 201.151 106.409C200.651 105 199.878 103.869 198.832 103.017C197.787 102.165 196.469 101.739 194.878 101.739C193.276 101.739 191.946 102.165 190.889 103.017C189.844 103.869 189.065 105 188.554 106.409C188.054 107.807 187.804 109.341 187.804 111.011C187.804 112.693 188.054 114.233 188.554 115.631C189.065 117.028 189.844 118.148 190.889 118.989C191.946 119.83 193.276 120.25 194.878 120.25ZM229.339 113.142V97.8182H234.453V124H229.442V119.466H229.169C228.567 120.864 227.601 122.028 226.271 122.96C224.953 123.881 223.311 124.341 221.345 124.341C219.663 124.341 218.175 123.972 216.879 123.233C215.595 122.483 214.584 121.375 213.845 119.909C213.118 118.443 212.754 116.631 212.754 114.472V97.8182H217.851V113.858C217.851 115.642 218.345 117.062 219.334 118.119C220.322 119.176 221.607 119.705 223.186 119.705C224.141 119.705 225.089 119.466 226.033 118.989C226.987 118.511 227.777 117.79 228.402 116.824C229.038 115.858 229.351 114.631 229.339 113.142ZM253.523 97.8182V101.909H239.222V97.8182H253.523ZM243.057 91.5455H248.153V116.312C248.153 117.301 248.301 118.045 248.597 118.545C248.892 119.034 249.273 119.369 249.739 119.551C250.216 119.722 250.733 119.807 251.29 119.807C251.699 119.807 252.057 119.778 252.364 119.722C252.67 119.665 252.909 119.619 253.08 119.585L254 123.795C253.705 123.909 253.284 124.023 252.739 124.136C252.193 124.261 251.511 124.33 250.693 124.341C249.352 124.364 248.102 124.125 246.943 123.625C245.784 123.125 244.847 122.352 244.131 121.307C243.415 120.261 243.057 118.949 243.057 117.369V91.5455ZM288.449 113.142V97.8182H293.562V124H288.551V119.466H288.278C287.676 120.864 286.71 122.028 285.381 122.96C284.063 123.881 282.42 124.341 280.455 124.341C278.773 124.341 277.284 123.972 275.989 123.233C274.705 122.483 273.693 121.375 272.955 119.909C272.227 118.443 271.864 116.631 271.864 114.472V97.8182H276.96V113.858C276.96 115.642 277.455 117.062 278.443 118.119C279.432 119.176 280.716 119.705 282.295 119.705C283.25 119.705 284.199 119.466 285.142 118.989C286.097 118.511 286.886 117.79 287.511 116.824C288.148 115.858 288.46 114.631 288.449 113.142ZM320.03 104.21L315.411 105.028C315.217 104.437 314.911 103.875 314.49 103.341C314.081 102.807 313.524 102.369 312.82 102.028C312.115 101.687 311.234 101.517 310.178 101.517C308.734 101.517 307.53 101.841 306.564 102.489C305.598 103.125 305.115 103.949 305.115 104.96C305.115 105.835 305.439 106.54 306.087 107.074C306.734 107.608 307.78 108.045 309.223 108.386L313.382 109.341C315.791 109.898 317.587 110.756 318.768 111.915C319.95 113.074 320.541 114.58 320.541 116.432C320.541 118 320.087 119.398 319.178 120.625C318.28 121.841 317.024 122.795 315.411 123.489C313.808 124.182 311.95 124.528 309.837 124.528C306.905 124.528 304.513 123.903 302.661 122.653C300.808 121.392 299.672 119.602 299.251 117.284L304.178 116.534C304.484 117.818 305.115 118.79 306.07 119.449C307.024 120.097 308.268 120.42 309.803 120.42C311.473 120.42 312.808 120.074 313.808 119.381C314.808 118.676 315.308 117.818 315.308 116.807C315.308 115.989 315.001 115.301 314.388 114.744C313.786 114.187 312.859 113.767 311.609 113.483L307.178 112.511C304.734 111.955 302.928 111.068 301.757 109.852C300.598 108.636 300.018 107.097 300.018 105.233C300.018 103.687 300.45 102.335 301.314 101.176C302.178 100.017 303.371 99.1136 304.893 98.4659C306.416 97.8068 308.161 97.4773 310.126 97.4773C312.956 97.4773 315.183 98.0909 316.808 99.3182C318.433 100.534 319.507 102.165 320.03 104.21Z" fill="white"/>
</svg>
