<svg width="805" height="242" viewBox="0 0 805 242" fill="none" xmlns="http://www.w3.org/2000/svg">
<path d="M186.114 163V116.455H215.295V122.5H193.136V136.682H213.773V142.705H193.136V156.955H215.568V163H186.114ZM263.335 131.591H256.244C255.972 130.076 255.464 128.742 254.722 127.591C253.979 126.439 253.07 125.462 251.994 124.659C250.919 123.856 249.714 123.25 248.381 122.841C247.063 122.432 245.661 122.227 244.176 122.227C241.494 122.227 239.093 122.902 236.972 124.25C234.866 125.598 233.199 127.576 231.972 130.182C230.759 132.788 230.153 135.97 230.153 139.727C230.153 143.515 230.759 146.712 231.972 149.318C233.199 151.924 234.873 153.894 236.994 155.227C239.116 156.561 241.502 157.227 244.153 157.227C245.623 157.227 247.017 157.03 248.335 156.636C249.669 156.227 250.873 155.629 251.949 154.841C253.025 154.053 253.934 153.091 254.676 151.955C255.434 150.803 255.956 149.485 256.244 148L263.335 148.023C262.956 150.311 262.222 152.417 261.131 154.341C260.055 156.25 258.669 157.902 256.972 159.295C255.29 160.674 253.366 161.742 251.199 162.5C249.032 163.258 246.669 163.636 244.108 163.636C240.078 163.636 236.487 162.682 233.335 160.773C230.184 158.848 227.699 156.098 225.881 152.523C224.078 148.947 223.176 144.682 223.176 139.727C223.176 134.758 224.085 130.492 225.903 126.932C227.722 123.356 230.206 120.614 233.358 118.705C236.509 116.78 240.093 115.818 244.108 115.818C246.578 115.818 248.881 116.174 251.017 116.886C253.169 117.583 255.1 118.614 256.812 119.977C258.525 121.326 259.941 122.977 261.062 124.932C262.184 126.871 262.941 129.091 263.335 131.591ZM271.739 163V116.455H278.761V136.682H301.966V116.455H309.011V163H301.966V142.705H278.761V163H271.739ZM356.807 116.455V163H350.352L326.693 128.864H326.261V163H319.239V116.455H325.739L349.42 150.636H349.852V116.455H356.807ZM407.483 139.727C407.483 144.697 406.574 148.97 404.756 152.545C402.938 156.106 400.445 158.848 397.278 160.773C394.127 162.682 390.544 163.636 386.528 163.636C382.498 163.636 378.9 162.682 375.733 160.773C372.581 158.848 370.097 156.098 368.278 152.523C366.46 148.947 365.551 144.682 365.551 139.727C365.551 134.758 366.46 130.492 368.278 126.932C370.097 123.356 372.581 120.614 375.733 118.705C378.9 116.78 382.498 115.818 386.528 115.818C390.544 115.818 394.127 116.78 397.278 118.705C400.445 120.614 402.938 123.356 404.756 126.932C406.574 130.492 407.483 134.758 407.483 139.727ZM400.528 139.727C400.528 135.939 399.915 132.75 398.688 130.159C397.475 127.553 395.809 125.583 393.688 124.25C391.581 122.902 389.195 122.227 386.528 122.227C383.847 122.227 381.453 122.902 379.347 124.25C377.241 125.583 375.574 127.553 374.347 130.159C373.134 132.75 372.528 135.939 372.528 139.727C372.528 143.515 373.134 146.712 374.347 149.318C375.574 151.909 377.241 153.879 379.347 155.227C381.453 156.561 383.847 157.227 386.528 157.227C389.195 157.227 391.581 156.561 393.688 155.227C395.809 153.879 397.475 151.909 398.688 149.318C399.915 146.712 400.528 143.515 400.528 139.727ZM416.239 163V116.455H423.261V156.955H444.352V163H416.239ZM490.983 139.727C490.983 144.697 490.074 148.97 488.256 152.545C486.438 156.106 483.945 158.848 480.778 160.773C477.627 162.682 474.044 163.636 470.028 163.636C465.998 163.636 462.4 162.682 459.233 160.773C456.081 158.848 453.597 156.098 451.778 152.523C449.96 148.947 449.051 144.682 449.051 139.727C449.051 134.758 449.96 130.492 451.778 126.932C453.597 123.356 456.081 120.614 459.233 118.705C462.4 116.78 465.998 115.818 470.028 115.818C474.044 115.818 477.627 116.78 480.778 118.705C483.945 120.614 486.438 123.356 488.256 126.932C490.074 130.492 490.983 134.758 490.983 139.727ZM484.028 139.727C484.028 135.939 483.415 132.75 482.188 130.159C480.975 127.553 479.309 125.583 477.188 124.25C475.081 122.902 472.695 122.227 470.028 122.227C467.347 122.227 464.953 122.902 462.847 124.25C460.741 125.583 459.074 127.553 457.847 130.159C456.634 132.75 456.028 135.939 456.028 139.727C456.028 143.515 456.634 146.712 457.847 149.318C459.074 151.909 460.741 153.879 462.847 155.227C464.953 156.561 467.347 157.227 470.028 157.227C472.695 157.227 475.081 156.561 477.188 155.227C479.309 153.879 480.975 151.909 482.188 149.318C483.415 146.712 484.028 143.515 484.028 139.727ZM531.239 131.159C530.799 129.78 530.208 128.545 529.466 127.455C528.739 126.348 527.867 125.409 526.852 124.636C525.837 123.848 524.678 123.25 523.375 122.841C522.087 122.432 520.67 122.227 519.125 122.227C516.504 122.227 514.14 122.902 512.034 124.25C509.928 125.598 508.261 127.576 507.034 130.182C505.822 132.773 505.216 135.947 505.216 139.705C505.216 143.477 505.83 146.667 507.057 149.273C508.284 151.879 509.966 153.856 512.102 155.205C514.239 156.553 516.67 157.227 519.398 157.227C521.928 157.227 524.133 156.712 526.011 155.682C527.905 154.652 529.367 153.197 530.398 151.318C531.443 149.424 531.966 147.197 531.966 144.636L533.784 144.977H520.466V139.182H538.761V144.477C538.761 148.386 537.928 151.78 536.261 154.659C534.61 157.523 532.322 159.735 529.398 161.295C526.489 162.856 523.155 163.636 519.398 163.636C515.186 163.636 511.489 162.667 508.307 160.727C505.14 158.788 502.67 156.038 500.898 152.477C499.125 148.902 498.239 144.659 498.239 139.75C498.239 136.038 498.754 132.705 499.784 129.75C500.814 126.795 502.261 124.288 504.125 122.227C506.004 120.152 508.208 118.568 510.739 117.477C513.284 116.371 516.064 115.818 519.08 115.818C521.595 115.818 523.936 116.189 526.102 116.932C528.284 117.674 530.223 118.727 531.92 120.091C533.633 121.455 535.049 123.076 536.17 124.955C537.292 126.818 538.049 128.886 538.443 131.159H531.239ZM554.699 116.455V163H547.676V116.455H554.699ZM564.926 163V116.455H594.108V122.5H571.949V136.682H592.585V142.705H571.949V156.955H594.381V163H564.926ZM628.875 128.682C628.633 126.53 627.633 124.864 625.875 123.682C624.117 122.485 621.905 121.886 619.239 121.886C617.33 121.886 615.678 122.189 614.284 122.795C612.89 123.386 611.807 124.205 611.034 125.25C610.277 126.28 609.898 127.455 609.898 128.773C609.898 129.879 610.155 130.833 610.67 131.636C611.201 132.439 611.89 133.114 612.739 133.659C613.602 134.189 614.527 134.636 615.511 135C616.496 135.348 617.443 135.636 618.352 135.864L622.898 137.045C624.383 137.409 625.905 137.902 627.466 138.523C629.027 139.144 630.473 139.962 631.807 140.977C633.14 141.992 634.216 143.25 635.034 144.75C635.867 146.25 636.284 148.045 636.284 150.136C636.284 152.773 635.602 155.114 634.239 157.159C632.89 159.205 630.928 160.818 628.352 162C625.792 163.182 622.693 163.773 619.057 163.773C615.572 163.773 612.557 163.22 610.011 162.114C607.466 161.008 605.473 159.439 604.034 157.409C602.595 155.364 601.799 152.939 601.648 150.136H608.693C608.83 151.818 609.375 153.22 610.33 154.341C611.299 155.447 612.534 156.273 614.034 156.818C615.549 157.348 617.208 157.614 619.011 157.614C620.996 157.614 622.761 157.303 624.307 156.682C625.867 156.045 627.095 155.167 627.989 154.045C628.883 152.909 629.33 151.583 629.33 150.068C629.33 148.689 628.936 147.561 628.148 146.682C627.375 145.803 626.322 145.076 624.989 144.5C623.67 143.924 622.178 143.417 620.511 142.977L615.011 141.477C611.284 140.462 608.33 138.97 606.148 137C603.981 135.03 602.898 132.424 602.898 129.182C602.898 126.5 603.625 124.159 605.08 122.159C606.534 120.159 608.504 118.606 610.989 117.5C613.473 116.379 616.277 115.818 619.398 115.818C622.549 115.818 625.33 116.371 627.739 117.477C630.163 118.583 632.072 120.106 633.466 122.045C634.86 123.97 635.587 126.182 635.648 128.682H628.875Z" fill="white"/>
<rect x="237.605" y="52" width="24" height="85" transform="rotate(69.4778 237.605 52)" fill="#2CC5D9" fill-opacity="0.32"/>
<path d="M110 37H180V165C180 203.66 148.66 235 110 235V37Z" fill="#2CC5D9"/>
<path d="M116 44H186V172C186 210.66 154.66 242 116 242V44Z" fill="#2CC5D9" fill-opacity="0.36"/>
<path d="M4 71H114V82H15C8.92487 82 4 77.0751 4 71Z" fill="#2CC5D9" fill-opacity="0.5"/>
<path d="M0 61C0 27.3106 27.3106 0 61 0H230C263.689 0 291 27.3106 291 61V65C291 69.9706 286.971 74 282 74H9C4.02944 74 0 69.9706 0 65V61Z" fill="#2CC5D9"/>
</svg>
