<svg width="622" height="166" viewBox="0 0 622 166" fill="none" xmlns="http://www.w3.org/2000/svg">
<g filter="url(#filter0_d_387_1031)">
<rect width="49.4328" height="168.126" transform="matrix(0.425353 -0.905028 0.901225 0.433351 52.6572 65.3285)" fill="#2CC5D9" fill-opacity="0.63" shape-rendering="crispEdges"/>
</g>
<g filter="url(#filter1_d_387_1031)">
<path d="M49.1816 7C49.1816 3.134 52.3156 0 56.1816 0H208.488C242.804 0 270.623 27.8188 270.623 62.1351C270.623 63.8758 269.212 65.2869 267.471 65.2869H63.1816C55.4497 65.2869 49.1816 59.0189 49.1816 51.2869V7Z" fill="#2CC5D9"/>
</g>
<g filter="url(#filter2_d_387_1031)">
<path d="M4 97.6451C4 94.7516 6.34561 92.406 9.23907 92.406H214.441C220.516 92.406 225.441 97.3309 225.441 103.406V149.693C225.441 154.111 221.859 157.693 217.441 157.693H64.0478C30.8843 157.693 4 130.809 4 97.6451Z" fill="#2CC5D9"/>
</g>
<path d="M213.229 163.056V116.51H245.683V125.647H224.479V135.192H244.024V144.351H224.479V153.919H245.683V163.056H213.229ZM252.729 163.056V116.51H271.956C275.441 116.51 278.448 117.139 280.979 118.397C283.524 119.639 285.486 121.427 286.865 123.76C288.244 126.079 288.933 128.829 288.933 132.01C288.933 135.238 288.229 137.98 286.82 140.238C285.411 142.48 283.411 144.192 280.82 145.374C278.229 146.541 275.161 147.124 271.615 147.124H259.456V138.26H269.524C271.221 138.26 272.638 138.041 273.774 137.601C274.926 137.147 275.797 136.465 276.388 135.556C276.979 134.632 277.274 133.45 277.274 132.01C277.274 130.571 276.979 129.382 276.388 128.442C275.797 127.488 274.926 126.776 273.774 126.306C272.623 125.821 271.206 125.579 269.524 125.579H263.979V163.056H252.729ZM278.933 141.783L290.524 163.056H278.252L266.888 141.783H278.933ZM304.297 116.51L314.706 150.601H315.092L325.502 116.51H338.092L322.388 163.056H307.411L291.706 116.51H304.297ZM354.354 116.51V163.056H343.104V116.51H354.354ZM403.666 133.374H392.303C392.151 132.207 391.841 131.154 391.371 130.215C390.901 129.276 390.28 128.473 389.507 127.806C388.734 127.139 387.818 126.632 386.757 126.283C385.712 125.919 384.553 125.738 383.28 125.738C381.022 125.738 379.075 126.291 377.439 127.397C375.818 128.503 374.568 130.101 373.689 132.192C372.825 134.283 372.394 136.813 372.394 139.783C372.394 142.874 372.833 145.465 373.712 147.556C374.606 149.632 375.856 151.2 377.462 152.26C379.083 153.306 381 153.829 383.212 153.829C384.454 153.829 385.583 153.669 386.598 153.351C387.628 153.033 388.53 152.571 389.303 151.965C390.091 151.344 390.734 150.594 391.234 149.715C391.75 148.821 392.106 147.813 392.303 146.692L403.666 146.76C403.469 148.821 402.871 150.851 401.871 152.851C400.886 154.851 399.53 156.677 397.803 158.329C396.075 159.965 393.969 161.268 391.484 162.238C389.015 163.207 386.181 163.692 382.984 163.692C378.772 163.692 375 162.768 371.666 160.919C368.348 159.056 365.727 156.344 363.803 152.783C361.878 149.223 360.916 144.889 360.916 139.783C360.916 134.662 361.894 130.321 363.848 126.76C365.803 123.2 368.447 120.495 371.78 118.647C375.113 116.798 378.848 115.874 382.984 115.874C385.803 115.874 388.409 116.268 390.803 117.056C393.197 117.829 395.303 118.965 397.121 120.465C398.939 121.95 400.416 123.776 401.553 125.942C402.689 128.109 403.394 130.586 403.666 133.374ZM410.104 163.056V116.51H442.558V125.647H421.354V135.192H440.899V144.351H421.354V153.919H442.558V163.056H410.104ZM474.763 130.465C474.611 128.798 473.937 127.503 472.74 126.579C471.558 125.639 469.869 125.169 467.672 125.169C466.217 125.169 465.005 125.359 464.036 125.738C463.066 126.116 462.339 126.639 461.854 127.306C461.369 127.957 461.119 128.707 461.104 129.556C461.073 130.253 461.21 130.866 461.513 131.397C461.831 131.927 462.286 132.397 462.877 132.806C463.483 133.2 464.21 133.548 465.058 133.851C465.907 134.154 466.861 134.419 467.922 134.647L471.922 135.556C474.225 136.056 476.255 136.723 478.013 137.556C479.786 138.389 481.27 139.382 482.467 140.533C483.68 141.685 484.596 143.01 485.217 144.51C485.839 146.01 486.157 147.692 486.172 149.556C486.157 152.495 485.414 155.018 483.945 157.124C482.475 159.23 480.361 160.844 477.604 161.965C474.861 163.086 471.551 163.647 467.672 163.647C463.778 163.647 460.384 163.063 457.49 161.897C454.596 160.73 452.346 158.957 450.74 156.579C449.134 154.2 448.308 151.192 448.263 147.556H459.036C459.127 149.056 459.528 150.306 460.24 151.306C460.952 152.306 461.93 153.063 463.172 153.579C464.43 154.094 465.884 154.351 467.536 154.351C469.051 154.351 470.339 154.147 471.399 153.738C472.475 153.329 473.301 152.76 473.877 152.033C474.452 151.306 474.748 150.473 474.763 149.533C474.748 148.654 474.475 147.904 473.945 147.283C473.414 146.647 472.596 146.101 471.49 145.647C470.399 145.177 469.005 144.745 467.308 144.351L462.445 143.215C458.414 142.291 455.24 140.798 452.922 138.738C450.604 136.662 449.452 133.859 449.467 130.329C449.452 127.45 450.225 124.927 451.786 122.76C453.346 120.594 455.505 118.904 458.263 117.692C461.02 116.48 464.164 115.874 467.695 115.874C471.301 115.874 474.43 116.488 477.081 117.715C479.748 118.927 481.816 120.632 483.286 122.829C484.755 125.026 485.505 127.571 485.536 130.465H474.763Z" fill="white"/>
<defs>
<filter id="filter0_d_387_1031" x="48.6572" y="20.5905" width="180.545" height="125.595" filterUnits="userSpaceOnUse" color-interpolation-filters="sRGB">
<feFlood flood-opacity="0" result="BackgroundImageFix"/>
<feColorMatrix in="SourceAlpha" type="matrix" values="0 0 0 0 0 0 0 0 0 0 0 0 0 0 0 0 0 0 127 0" result="hardAlpha"/>
<feOffset dy="4"/>
<feGaussianBlur stdDeviation="2"/>
<feComposite in2="hardAlpha" operator="out"/>
<feColorMatrix type="matrix" values="0 0 0 0 0 0 0 0 0 0 0 0 0 0 0 0 0 0 0.25 0"/>
<feBlend mode="normal" in2="BackgroundImageFix" result="effect1_dropShadow_387_1031"/>
<feBlend mode="normal" in="SourceGraphic" in2="effect1_dropShadow_387_1031" result="shape"/>
</filter>
<filter id="filter1_d_387_1031" x="45.1816" y="0" width="229.441" height="73.2869" filterUnits="userSpaceOnUse" color-interpolation-filters="sRGB">
<feFlood flood-opacity="0" result="BackgroundImageFix"/>
<feColorMatrix in="SourceAlpha" type="matrix" values="0 0 0 0 0 0 0 0 0 0 0 0 0 0 0 0 0 0 127 0" result="hardAlpha"/>
<feOffset dy="4"/>
<feGaussianBlur stdDeviation="2"/>
<feComposite in2="hardAlpha" operator="out"/>
<feColorMatrix type="matrix" values="0 0 0 0 0 0 0 0 0 0 0 0 0 0 0 0 0 0 0.25 0"/>
<feBlend mode="normal" in2="BackgroundImageFix" result="effect1_dropShadow_387_1031"/>
<feBlend mode="normal" in="SourceGraphic" in2="effect1_dropShadow_387_1031" result="shape"/>
</filter>
<filter id="filter2_d_387_1031" x="0" y="92.406" width="229.441" height="73.2869" filterUnits="userSpaceOnUse" color-interpolation-filters="sRGB">
<feFlood flood-opacity="0" result="BackgroundImageFix"/>
<feColorMatrix in="SourceAlpha" type="matrix" values="0 0 0 0 0 0 0 0 0 0 0 0 0 0 0 0 0 0 127 0" result="hardAlpha"/>
<feOffset dy="4"/>
<feGaussianBlur stdDeviation="2"/>
<feComposite in2="hardAlpha" operator="out"/>
<feColorMatrix type="matrix" values="0 0 0 0 0 0 0 0 0 0 0 0 0 0 0 0 0 0 0.25 0"/>
<feBlend mode="normal" in2="BackgroundImageFix" result="effect1_dropShadow_387_1031"/>
<feBlend mode="normal" in="SourceGraphic" in2="effect1_dropShadow_387_1031" result="shape"/>
</filter>
</defs>
</svg>
