<svg width="13" height="14" viewBox="0 0 13 14" fill="none" xmlns="http://www.w3.org/2000/svg">
<path d="M2.44278 1.37767C3.55477 0.515529 4.96527 0 6.5 0C8.03472 0 9.44522 0.515529 10.5572 1.37767L11.6069 0.360304L12.6283 1.35025L11.5786 2.36762C12.4681 3.44539 13 4.81249 13 6.3V7H0V6.3C0 4.81249 0.531895 3.44539 1.42141 2.36762L0.371742 1.35025L1.39312 0.360304L2.44278 1.37767ZM0 8.4H13V13.3C13 13.6866 12.6767 14 12.2778 14H0.722222C0.323353 14 0 13.6866 0 13.3V8.4ZM4.33333 4.9C4.7322 4.9 5.05556 4.5866 5.05556 4.2C5.05556 3.8134 4.7322 3.5 4.33333 3.5C3.93446 3.5 3.61111 3.8134 3.61111 4.2C3.61111 4.5866 3.93446 4.9 4.33333 4.9ZM8.66667 4.9C9.06555 4.9 9.38889 4.5866 9.38889 4.2C9.38889 3.8134 9.06555 3.5 8.66667 3.5C8.26778 3.5 7.94444 3.8134 7.94444 4.2C7.94444 4.5866 8.26778 4.9 8.66667 4.9Z" fill="#16A34A"/>
</svg>
