<svg width="16" height="16" viewBox="0 0 16 16" fill="none" xmlns="http://www.w3.org/2000/svg">
<path d="M8.12461 4.59717C7.34877 4.59717 6.14778 3.87859 4.88304 3.90456C3.21444 3.92188 1.684 4.6924 0.823123 5.91311C-0.90925 8.36322 0.376745 11.9821 2.06661 13.9733C2.89559 14.943 3.87337 16.0338 5.17 15.9992C6.41348 15.9559 6.88113 15.3412 8.39032 15.3412C9.88887 15.3412 10.314 15.9992 11.6319 15.9732C12.971 15.9559 13.8212 14.9863 14.6396 14.008C15.5855 12.8825 15.9787 11.7916 16 11.731C15.9681 11.7224 13.3961 10.9172 13.3642 8.49309C13.343 6.4672 15.3942 5.49756 15.4899 5.45427C14.3208 4.0604 12.5246 3.90456 11.8976 3.86993C10.2609 3.76604 8.88983 4.59717 8.12461 4.59717ZM10.8879 2.55398C11.5787 1.87869 12.0357 0.93502 11.9082 0C10.9198 0.0346303 9.72945 0.536772 9.01737 1.21206C8.37969 1.80943 7.82703 2.77042 7.97582 3.68813C9.07051 3.75739 10.1971 3.22927 10.8879 2.55398Z" fill="#B2B1B1"/>
</svg>
