<svg width="14" height="17" viewBox="0 0 14 17" fill="none" xmlns="http://www.w3.org/2000/svg">
<path d="M6.247 6.03966C5.70931 5.22638 5.50653 4.63611 5.46252 4.20658C5.42095 3.80087 5.51453 3.47946 5.70017 3.16922C5.90063 2.83409 6.20146 2.52241 6.58424 2.15458C6.94195 1.81078 7.38955 1.4023 7.74074 0.93955L6.63638 0C6.34185 0.388108 5.97925 0.710237 5.63209 1.04387C5.25379 1.40744 4.81826 1.84022 4.50339 2.36652C4.17362 2.91772 3.9728 3.57474 4.05412 4.36835C4.13299 5.13816 4.47038 5.96811 5.08644 6.89989L6.247 6.03966ZM7.13228 3.76725C7.33401 3.25461 7.743 2.74044 8.39318 2.15033L9.31515 3.28922C8.72575 3.82411 8.51495 4.15369 8.44001 4.34418C8.36627 4.53145 8.41514 4.71848 8.46473 4.90465C8.52387 5.12657 8.6224 5.49649 8.6161 5.89634C8.60781 6.42538 8.43653 6.98516 8.0269 7.63578L6.8481 6.80375C7.1468 6.32939 7.19688 6.04542 7.19964 5.87134C7.20311 5.65001 7.14857 5.52585 7.06024 5.15168C6.97552 4.79296 6.91142 4.32855 7.13228 3.76725ZM2.93395 7.21964C3.26632 6.98408 3.67743 6.8643 4.06149 6.76648L3.73018 5.30808C3.15431 5.45475 2.63125 5.65362 2.23418 5.9131C1.87289 6.14919 1.41667 6.57161 1.41667 7.2197C1.41667 7.76441 1.76072 8.19926 2.17139 8.48403C2.1413 8.62128 2.125 8.76446 2.125 8.91296C2.125 9.64826 2.42112 10.2682 2.93444 10.7287C2.85906 10.953 2.82491 11.2037 2.83568 11.4546C2.28499 11.5677 1.74744 11.7342 1.29862 11.952C0.992283 12.1007 0.690689 12.2907 0.455487 12.5353C0.218705 12.7815 0 13.1382 0 13.5948C0 13.915 0.133613 14.1735 0.264789 14.3517C0.398693 14.5337 0.570846 14.6887 0.749495 14.8201C1.10804 15.0838 1.58836 15.3219 2.13683 15.5224C3.24065 15.9261 4.73581 16.2198 6.375 16.2198C8.73184 16.2198 10.3861 15.9318 11.4678 15.633C12.0087 15.4836 12.4055 15.3318 12.6749 15.2124C12.8234 15.1466 12.9725 15.0767 13.1114 14.9898C13.119 14.985 12.3829 13.7034 12.3862 13.7013C11.9861 13.9218 11.5446 14.0616 11.1103 14.1816C10.1556 14.4453 8.62233 14.7198 6.375 14.7198C4.88457 14.7198 3.5464 14.451 2.5993 14.1046C2.22304 13.9671 1.82889 13.8061 1.508 13.5501C1.58973 13.4817 1.71396 13.4005 1.88888 13.3156C2.28411 13.1238 2.82595 12.9665 3.4043 12.8722C3.56656 13.0545 3.76034 13.2153 3.98163 13.352C4.66537 13.7743 5.60482 13.9698 6.72917 13.9698C7.65708 13.9698 8.32844 13.8709 8.78206 13.7645C9.0338 13.7055 9.28745 13.6388 9.52014 13.5182C9.52241 13.5171 8.89589 12.1717 8.89589 12.1717C8.75861 12.2249 8.6185 12.2665 8.47571 12.3C8.1299 12.3811 7.56167 12.4698 6.72917 12.4698C5.7285 12.4698 5.07421 12.2902 4.69545 12.0563C4.39413 11.8702 4.2784 11.6638 4.25477 11.4389C4.86953 11.6285 5.5975 11.7198 6.41927 11.7198C7.45599 11.7198 8.20356 11.6121 8.70598 11.4972C8.97919 11.4348 9.25537 11.3628 9.50973 11.2372C9.52411 11.2299 8.90219 9.88211 8.90219 9.88211C8.86338 9.89891 8.70485 9.96288 8.40693 10.031C8.00998 10.1218 7.36305 10.2198 6.41927 10.2198C5.28371 10.2198 4.52701 10.0215 4.08002 9.75228C3.7464 9.55136 3.59995 9.32643 3.55641 9.08501C4.43451 9.32988 5.54264 9.46968 6.72917 9.46968C8.016 9.46968 9.20947 9.30521 10.1173 9.02141L9.71607 7.58283C8.96934 7.81631 7.91648 7.96968 6.72917 7.96968C5.50818 7.96968 4.43063 7.80746 3.68184 7.56356C3.32838 7.44836 3.08277 7.32603 2.93395 7.21964ZM11.0433 7.77903C11.9021 7.69638 12.2185 7.92026 12.3207 8.03613C12.4263 8.15598 12.4633 8.34176 12.417 8.53773C12.3347 8.88618 12.1034 9.22406 11.7277 9.53448C11.3532 9.84386 10.8774 10.0897 10.4011 10.2577L10.8489 11.6808C11.4351 11.474 12.066 11.1576 12.5991 10.7171C13.1309 10.2777 13.608 9.67826 13.7913 8.90156C13.9221 8.34768 13.8705 7.59596 13.3564 7.01266C12.8387 6.42536 12.0042 6.18038 10.9151 6.28523L11.0433 7.77903Z" fill="#E2A627"/>
</svg>
