<svg width="16" height="11" viewBox="0 0 16 11" fill="none" xmlns="http://www.w3.org/2000/svg">
<path d="M11.483 0C10.1711 0 9.14553 1.0223 8.21718 2.32093C6.94135 0.640368 5.87443 0 4.59762 0C1.9945 0 0 3.50483 0 7.21446C0 9.53583 1.08553 11 2.90376 11C4.21241 11 5.15359 10.3617 6.8268 7.33583C6.8268 7.33583 7.52422 6.06159 8.00403 5.18386C8.17216 5.46465 8.34888 5.76686 8.5353 6.09173L9.3199 7.45727C10.8483 10.1033 11.6999 11 13.2429 11C15.0142 11 16 9.51581 16 7.14619C16 3.26207 13.9606 0 11.483 0ZM5.55088 6.51655C4.19433 8.71655 3.72503 9.20964 2.96976 9.20964C2.19249 9.20964 1.73053 8.50366 1.73053 7.24482C1.73053 4.55173 3.02842 1.79793 4.57563 1.79793C5.41348 1.79793 6.11366 2.29855 7.18611 3.88697C6.16777 5.50301 5.55088 6.51655 5.55088 6.51655ZM10.6707 6.23957L9.73259 4.62095C9.47875 4.19379 9.23548 3.80131 9.00072 3.44143C9.84621 2.09134 10.5436 1.41862 11.3731 1.41862C13.0963 1.41862 14.4748 4.04345 14.4748 7.26755C14.4748 8.49655 14.0857 9.20964 13.2796 9.20964C12.5069 9.20964 12.1378 8.68171 10.6707 6.23957Z" fill="#1492C6"/>
</svg>
