<svg width="16" height="17" viewBox="0 0 16 17" fill="none" xmlns="http://www.w3.org/2000/svg">
<path d="M8.7472 0.188762C8.28598 -0.0629207 7.71402 -0.0629207 7.2528 0.188762L0.726493 3.75039C0.276379 3.99604 0 4.44434 0 4.92883V12.0711C0 12.5557 0.276379 13.004 0.726501 13.2496L2.93555 14.4552C4.0583 15.0679 5.47368 14.3168 5.47368 13.1084V5.17696H3.78947V13.1084L1.68421 11.9594V5.04054L8 1.5938L14.3158 5.04054V11.9594L8 15.4062L6.51082 14.5935L5.6569 15.9403L7.2528 16.8112C7.71402 17.0629 8.28598 17.0629 8.7472 16.8112L15.2735 13.2496C15.7236 13.004 16 12.5557 16 12.0711V4.92883C16 4.44434 15.7236 3.99604 15.2735 3.75039L8.7472 0.188762ZM9.68413 4.98433C8.53659 4.98433 7.72312 5.25868 7.20034 5.74211C6.68093 6.22252 6.57979 6.78816 6.57979 7.1182C6.57979 7.55172 6.712 7.94454 6.98535 8.26938C7.24851 8.58228 7.59571 8.77634 7.92808 8.90306C8.53398 9.13408 9.29331 9.20987 9.90206 9.27057L9.97558 9.27791C10.6757 9.34815 11.1998 9.40838 11.559 9.54776C11.7212 9.61073 11.788 9.66831 11.8156 9.70151C11.8336 9.72331 11.8681 9.77175 11.8681 9.90448C11.8681 10.1108 11.7917 10.2437 11.554 10.3693C11.2615 10.5238 10.7449 10.6404 9.96783 10.6404C9.1973 10.6404 8.66004 10.5082 8.35301 10.3111C8.11427 10.1577 7.93878 9.92269 7.98501 9.41276L6.30672 9.28182C6.21537 10.2891 6.60876 11.0912 7.39436 11.5958C8.11158 12.0564 9.05415 12.2029 9.96783 12.2029C10.8749 12.2029 11.7296 12.0745 12.3872 11.7272C13.0996 11.3509 13.5523 10.7252 13.5523 9.90448C13.5523 9.46987 13.4216 9.07572 13.1505 8.74877C12.8888 8.43314 12.5425 8.23571 12.2089 8.10626C11.5959 7.86836 10.8275 7.79157 10.2144 7.73024L10.1565 7.72446C9.45465 7.65407 8.92935 7.59555 8.56825 7.45781C8.40488 7.39555 8.33895 7.33883 8.31293 7.30797C8.2971 7.28914 8.264 7.24531 8.264 7.1182C8.264 7.05765 8.2832 6.94695 8.38939 6.84872C8.49238 6.7535 8.80994 6.54685 9.68413 6.54685C10.5182 6.54685 11.0041 6.62901 11.2817 6.78174C11.463 6.88154 11.659 7.06507 11.6851 7.66633L13.368 7.60344C13.3257 6.63026 12.9427 5.8791 12.1409 5.43787C11.4354 5.04957 10.5342 4.98433 9.68413 4.98433Z" fill="#16A34A"/>
</svg>
