<svg width="16" height="7" viewBox="0 0 16 7" fill="none" xmlns="http://www.w3.org/2000/svg">
<path d="M3.17145 2.2139H2.27989L1.7935 4.4022H2.58494C3.11005 4.4022 3.50105 4.3154 3.75794 4.14268C4.01483 3.96913 4.18767 3.68073 4.27739 3.27578C4.36427 2.8874 4.32461 2.61306 4.16028 2.45355C3.995 2.29405 3.66633 2.2139 3.17145 2.2139ZM4.80534 4.63688C4.55884 4.84349 4.26228 4.99883 3.93928 5.09223C3.62195 5.18148 3.21678 5.22773 2.72567 5.22773H1.61027L1.30145 6.61688H0L1.16167 1.38916H3.66444C4.41717 1.38916 4.96589 1.56187 5.31155 1.90813C5.65722 2.25356 5.76111 2.7362 5.62322 3.35599C5.57041 3.60123 5.47316 3.83753 5.33517 4.05593C5.20011 4.26663 5.0235 4.46083 4.80534 4.63688ZM8.60578 5.22773L9.11858 2.9147C9.17811 2.65191 9.15545 2.47173 9.05438 2.37669C8.95331 2.28083 8.73705 2.2329 8.40558 2.2329H7.37425L6.70931 5.22855H5.41734L6.57898 0H7.87005L7.56125 1.38998H8.71158C9.43591 1.38998 9.93458 1.50072 10.2094 1.72136C10.4842 1.94201 10.5664 2.29984 10.4578 2.79483L9.91758 5.22773H8.60578ZM15.7807 3.35599C15.7288 3.6014 15.6314 3.83783 15.4926 4.05593C15.3576 4.26663 15.181 4.46083 14.9628 4.63688C14.7162 4.84285 14.4204 4.99837 14.0968 5.09223C13.7794 5.18148 13.3742 5.22773 12.8822 5.22773H11.7678L11.4589 6.6177H10.1575L11.3192 1.38998H13.821C14.5737 1.38998 15.1224 1.5627 15.4681 1.90896C15.8138 2.25356 15.9186 2.7362 15.7807 3.35599ZM13.3299 2.2139H12.4392L11.9519 4.4022H12.7434C13.2694 4.4022 13.6604 4.3154 13.9164 4.14268C14.1732 3.96913 14.3461 3.68073 14.4368 3.27578C14.5236 2.8874 14.483 2.61306 14.3187 2.45355C14.1544 2.29405 13.8238 2.2139 13.3299 2.2139Z" fill="#9334EA"/>
</svg>
