<svg width="20" height="17" viewBox="0 0 20 17" fill="none" xmlns="http://www.w3.org/2000/svg">
<path d="M10 9.86081C9.21096 9.86081 8.57144 9.25154 8.57144 8.50004C8.57144 7.74844 9.21096 7.13927 10 7.13927C10.789 7.13927 11.4286 7.74844 11.4286 8.50004C11.4286 9.25154 10.789 9.86081 10 9.86081ZM9.49744 12.5773C9.66372 12.7682 9.83134 12.9524 10 13.1293C10.1686 12.9524 10.3363 12.7682 10.5025 12.5773C10.336 12.5806 10.1685 12.5823 10 12.5823C9.83144 12.5823 9.66391 12.5806 9.49744 12.5773ZM7.59751 12.4638C6.83354 12.3869 6.10416 12.2741 5.42066 12.1301C5.34984 12.4473 5.29558 12.755 5.25852 13.0509C5.07866 14.4873 5.33054 15.3598 5.71428 15.5708C6.09801 15.7818 7.01709 15.5534 8.23315 14.6868C8.48363 14.5083 8.7363 14.3097 8.98925 14.0926C8.51658 13.6008 8.04941 13.0555 7.59751 12.4638ZM14.5793 12.1301C13.8958 12.2741 13.1664 12.3869 12.4025 12.4638C11.9506 13.0555 11.4833 13.6008 11.0107 14.0926C11.2637 14.3097 11.5163 14.5083 11.7669 14.6868C12.9829 15.5534 13.902 15.7818 14.2857 15.5708C14.6694 15.3598 14.9213 14.4873 14.7414 13.0509C14.7044 12.755 14.6501 12.4473 14.5793 12.1301ZM15.9608 11.7781C16.5099 14.1722 16.2208 16.0779 15 16.7492C13.7791 17.4206 11.902 16.7063 10 15.0562C8.09792 16.7063 6.22079 17.4206 5 16.7492C3.77919 16.0779 3.49006 14.1722 4.03922 11.7781C1.58804 11.0342 0 9.84275 0 8.50004C0 7.15723 1.58804 5.9659 4.03922 5.22188C3.49006 2.82783 3.77919 0.922147 5 0.25077C6.22079 -0.420608 8.09792 0.293725 10 1.94377C11.902 0.293725 13.7791 -0.420608 15 0.25077C16.2208 0.922147 16.5099 2.82783 15.9608 5.22188C18.4119 5.9659 20 7.15723 20 8.50004C20 9.84275 18.4119 11.0342 15.9608 11.7781ZM8.98925 2.90737C8.7363 2.69033 8.48363 2.49171 8.23315 2.31319C7.01709 1.44661 6.09801 1.2182 5.71428 1.42923C5.33054 1.64027 5.07866 2.51264 5.25852 3.94907C5.29558 4.24499 5.34984 4.55271 5.42066 4.86993C6.10416 4.72594 6.83354 4.61318 7.59751 4.53627C8.04941 3.94452 8.51658 3.3992 8.98925 2.90737ZM12.4025 4.53627C13.1664 4.61318 13.8958 4.72594 14.5793 4.86993C14.6501 4.55271 14.7044 4.24499 14.7414 3.94907C14.9213 2.51264 14.6694 1.64027 14.2857 1.42923C13.902 1.2182 12.9829 1.44661 11.7669 2.31319C11.5163 2.49171 11.2637 2.69033 11.0107 2.90737C11.4833 3.3992 11.9506 3.94452 12.4025 4.53627ZM10.5025 4.42276C10.3363 4.2318 10.1686 4.0476 10 3.8707C9.83134 4.0476 9.66372 4.2318 9.49744 4.42276C9.66391 4.41939 9.83144 4.4177 10 4.4177C10.1685 4.4177 10.336 4.41939 10.5025 4.42276ZM6.54432 10.9531C6.45802 10.8175 6.37271 10.6802 6.28845 10.5412C6.20419 10.4021 6.12198 10.2631 6.0418 10.1241C5.9513 10.3567 5.86768 10.5871 5.79115 10.8146C6.03628 10.8653 6.28759 10.9115 6.54432 10.9531ZM8.38468 11.165C8.91134 11.2023 9.45153 11.2216 10 11.2216C10.5485 11.2216 11.0886 11.2023 11.6152 11.165C11.9125 10.7491 12.2001 10.3132 12.4744 9.86081C12.7486 9.40831 13.0011 8.95308 13.2305 8.50004C13.0011 8.0469 12.7486 7.59168 12.4744 7.13927C12.2001 6.68676 11.9125 6.25087 11.6152 5.83507C11.0886 5.79775 10.5485 5.77847 10 5.77847C9.45153 5.77847 8.91134 5.79775 8.38468 5.83507C8.08747 6.25087 7.79988 6.68676 7.52563 7.13927C7.25138 7.59168 6.99887 8.0469 6.76946 8.50004C6.99887 8.95308 7.25138 9.40831 7.52563 9.86081C7.79988 10.3132 8.08747 10.7491 8.38468 11.165ZM13.9582 6.87591C14.0487 6.64331 14.1323 6.41289 14.2089 6.18536C13.9637 6.13473 13.7124 6.0885 13.4556 6.04685C13.5419 6.18249 13.6272 6.31984 13.7115 6.45885C13.7958 6.59786 13.878 6.73693 13.9582 6.87591ZM4.40995 6.53745C4.08613 6.63763 3.77923 6.74673 3.49166 6.86412C2.09577 7.43401 1.42857 8.07793 1.42857 8.50004C1.42857 8.92206 2.09577 9.56606 3.49166 10.1359C3.77923 10.2533 4.08613 10.3624 4.40995 10.4625C4.62079 9.8267 4.88297 9.16863 5.19502 8.50004C4.88297 7.83135 4.62079 7.17329 4.40995 6.53745ZM5.79115 6.18536C5.86768 6.41289 5.9513 6.64331 6.0418 6.87591C6.12198 6.73693 6.20419 6.59786 6.28845 6.45885C6.37271 6.31984 6.45802 6.18249 6.54432 6.04685C6.28759 6.0885 6.03628 6.13473 5.79115 6.18536ZM15.59 10.4625C15.9138 10.3624 16.2208 10.2533 16.5083 10.1359C17.9042 9.56606 18.5714 8.92206 18.5714 8.50004C18.5714 8.07793 17.9042 7.43401 16.5083 6.86412C16.2208 6.74673 15.9138 6.63763 15.59 6.53745C15.3791 7.17329 15.1171 7.83135 14.805 8.50004C15.1171 9.16863 15.3791 9.8267 15.59 10.4625ZM14.2089 10.8146C14.1323 10.5871 14.0487 10.3567 13.9582 10.1241C13.878 10.2631 13.7958 10.4021 13.7115 10.5412C13.6272 10.6802 13.5419 10.8175 13.4556 10.9531C13.7124 10.9115 13.9637 10.8653 14.2089 10.8146Z" fill="#2CC5D9"/>
</svg>
