<svg width="14" height="14" viewBox="0 0 14 14" fill="none" xmlns="http://www.w3.org/2000/svg">
<path d="M0.926156 7C0.926156 9.40695 2.32616 11.48 4.35077 12.4654L1.45384 4.52846C1.10599 5.30599 0.92617 6.14817 0.926156 7ZM7 13.0738C7.70539 13.0738 8.38383 12.95 9.01922 12.7292L8.97617 12.6484L7.10766 7.53305L5.28769 12.8262C5.82617 12.9877 6.40234 13.0738 7 13.0738ZM7.83461 4.15154L10.0316 10.683L10.64 8.65844C10.8984 7.81844 11.0977 7.21539 11.0977 6.69305C11.0977 5.93922 10.8284 5.42231 10.6023 5.02384C10.29 4.51769 10.0046 4.09231 10.0046 3.59692C10.0046 3.03692 10.4246 2.52 11.0277 2.52H11.103C9.98389 1.49257 8.51928 0.923622 7 0.926156C5.99403 0.925967 5.00384 1.17585 4.11843 1.65333C3.23303 2.13081 2.48021 2.82091 1.92769 3.66154L2.31538 3.6723C2.95077 3.6723 3.93077 3.59154 3.93077 3.59154C4.26462 3.57538 4.3023 4.05462 3.97384 4.0923C3.97384 4.0923 3.64538 4.13538 3.27384 4.15154L5.49231 10.7316L6.82234 6.74695L5.87461 4.15154C5.66237 4.13983 5.45045 4.12187 5.23923 4.09769C4.91077 4.07616 4.94846 3.57538 5.27692 3.59154C5.27692 3.59154 6.27844 3.6723 6.87617 3.6723C7.51156 3.6723 8.49156 3.59154 8.49156 3.59154C8.82 3.57538 8.86305 4.05462 8.53461 4.0923C8.53461 4.0923 8.20617 4.13 7.83461 4.15154ZM10.0531 12.25C10.9719 11.7158 11.7345 10.9497 12.2646 10.0284C12.7947 9.10714 13.0737 8.06288 13.0738 7C13.0738 5.94461 12.8046 4.95384 12.3308 4.08692C12.427 5.04069 12.2826 6.00334 11.9108 6.88695L10.0531 12.25ZM7 14C5.14349 14 3.36301 13.2625 2.05025 11.9498C0.737499 10.637 0 8.85654 0 7C0 5.14349 0.737499 3.36301 2.05025 2.05025C3.36301 0.737499 5.14349 0 7 0C8.85654 0 10.637 0.737499 11.9498 2.05025C13.2625 3.36301 14 5.14349 14 7C14 8.85654 13.2625 10.637 11.9498 11.9498C10.637 13.2625 8.85654 14 7 14Z" fill="#2463EB"/>
</svg>
